<?xml version="1.0" encoding="UTF-8"?>
<svg id="Layer_1" data-name="Layer 1" xmlns="http://www.w3.org/2000/svg" viewBox="0 0 1069.25 482.73">
  <defs>
    <style>
      .cls-1 {
        fill: #fff;
      }

      .cls-1, .cls-2 {
        stroke: #231f20;
        stroke-miterlimit: 10;
        stroke-width: 4px;
      }

      .cls-2 {
        fill: #939598;
      }
    </style>
  </defs>
  <path class="cls-1" d="M833.92,193.17c-11.43,34.79-21.02,71.03-28.95,105.55h-94.68c-38.93,114.35-98.13,209.66-183.84,169.99C340.36,382.61,773.62,4.88,773.62,4.88c0,0-9.79,88.12-33.47,188.28h93.76Z"/>
  <path class="cls-2" d="M170.59,143.18c0,4.17,21.79,281.66,117.13,325.53,95.34,43.87,73.12-410.24-37.97-454.67-111.1-44.44-79.16,129.15-79.16,129.15Z"/>
  <path class="cls-1" d="M914.92,193.17l-30.55,105.55h-79.4c7.93-34.52,17.52-70.76,28.95-105.55h81Z"/>
  <path class="cls-1" d="M2.55,477.85S63.66-72.07,249.74,14.03C435.83,100.13,2.55,477.85,2.55,477.85Z"/>
  <path class="cls-1" d="M773.62,477.85s9.2-82.81,31.34-179.14c7.93-34.52,17.52-70.76,28.95-105.55,38.86-118.34,98.9-219.85,186.9-179.14,186.08,86.1-247.19,463.82-247.19,463.82Z"/>
  <path class="cls-1" d="M534.9,4.88s-61.1,549.92-247.19,463.82C101.63,382.6,534.9,4.88,534.9,4.88Z"/>
</svg>