<?xml version="1.0" encoding="UTF-8"?>
<svg id="Layer_1" data-name="Layer 1" xmlns="http://www.w3.org/2000/svg" viewBox="0 0 972.86 1061.94">
  <defs>
    <style>
      .cls-1 {
        fill: #1c75bc;
      }

      .cls-1, .cls-2 {
        stroke-width: 0px;
      }

      .cls-2 {
        fill: #fff;
      }
    </style>
  </defs>
  <path class="cls-1" d="M972.86,688.37c0,206.32-217.79,373.57-486.43,373.57S0,894.69,0,688.37c0-155.61,123.88-288.99,300.04-345.16h.01s.05-.02.11-.03c1.16-.28,10.66-2.65,25.34-7.45,63.92-20.9,226.08-87.91,226.08-229.93,0-58.43,47.37-105.8,105.79-105.8s105.8,47.37,105.8,105.8c0,0-.64,5.92-1.25,16.29-3.09,52.64-5.51,220.07,79.41,310.81,7.93,8.49,16.63,16.3,26.17,23.28,0,.01,0,.01,0,.01,65.95,63.74,105.35,144.43,105.35,232.18Z"/>
  <path class="cls-2" d="M785.78,787.7C713.78,1144.69-1.39,995.24,80.97,638.08c23.03-87.44,160.68-54.44,140.78,34.29-48.27,209.21,384.21,297.69,421.96,86.27,17.17-92.59,162.55-62.62,142.06,29.07Z"/>
</svg>